<?xml version="1.0" encoding="UTF-8"?>
<svg version="1.1" xmlns="http://www.w3.org/2000/svg" width="256" height="256">
<path d="M0 0 C2.03338358 1.10497492 4.09031031 2.14675323 6.16261292 3.17674255 C6.87289642 3.53026291 7.58317993 3.88378326 8.31498718 4.24801636 C8.85106598 4.5139711 9.38714478 4.77992584 9.93946838 5.05393982 C8.07092794 12.06333621 6.19964222 19.07199659 4.32646179 26.08015442 C3.65292711 28.60012592 2.97964743 31.12016559 2.30662537 33.64027405 C-1.46576306 47.75966866 -5.26776522 61.86923997 -9.17381287 75.95237732 C-9.49851563 77.12501633 -9.82321838 78.29765533 -10.15776062 79.50582886 C-11.71087972 85.11189905 -13.27114169 90.71582988 -14.8422699 96.31687927 C-15.40354076 98.33724024 -15.96458852 100.3576632 -16.52537537 102.37815857 C-16.78401871 103.29024078 -17.04266205 104.202323 -17.30914307 105.14204407 C-17.54155197 105.98397308 -17.77396088 106.8259021 -18.01341248 107.69334412 C-18.2168779 108.41934311 -18.42034332 109.1453421 -18.62997437 109.89334106 C-19.37321974 113.6230542 -19.26407572 116.4433075 -18.06053162 120.05393982 C-5.94537677 124.09232477 10.46952698 120.2096455 22.93946838 119.05393982 C22.23956622 124.43620925 20.6579121 129.35576224 18.95509338 134.48362732 C18.50888641 135.84561752 18.50888641 135.84561752 18.05366516 137.23512268 C17.10301348 140.13442094 16.14650848 143.03174477 15.18946838 145.92893982 C14.2508572 148.78158167 13.31349847 151.63462186 12.37831116 154.48838806 C11.76447679 156.35521396 11.14608938 158.22054912 10.52308655 160.08433533 C9.12200241 164.29961905 7.78953355 168.49789465 6.68751526 172.80198669 C3.67302094 184.34994967 3.67302094 184.34994967 -1.24803162 187.66331482 C-3.59568787 188.81419373 -3.59568787 188.81419373 -6.06053162 189.80393982 C-7.32703552 190.38474304 -7.32703552 190.38474304 -8.61912537 190.97727966 C-11.07661785 192.07557682 -13.55163874 193.07976422 -16.06053162 194.05393982 C-16.71279724 194.3165863 -17.36506287 194.57923279 -18.03709412 194.84983826 C-27.96262583 198.74681189 -37.55110497 199.53930797 -47.71287537 196.09300232 C-56.28904627 192.29722618 -62.84234215 185.48435927 -66.37303162 176.86643982 C-68.29176465 171.72553064 -69.18591424 167.46112028 -69.20097351 161.94563293 C-69.20668365 160.69246277 -69.2123938 159.4392926 -69.21827698 158.14814758 C-69.21952227 156.76176463 -69.22064738 155.37538156 -69.22166443 153.98899841 C-69.2262946 152.5268186 -69.23131953 151.06463998 -69.23670959 149.60246277 C-69.24981955 145.63108092 -69.25627623 141.65971597 -69.26072025 137.68831587 C-69.26365425 135.20437996 -69.26775976 132.72044864 -69.27222443 130.23651505 C-69.28589787 122.45706116 -69.29556434 114.67761778 -69.29942632 106.89815271 C-69.30390184 97.93300601 -69.32142682 88.96801217 -69.35042691 80.00291193 C-69.37208839 73.06430038 -69.38213304 66.12573168 -69.38346744 59.1870867 C-69.3845126 55.0474539 -69.39035822 50.90796482 -69.40828705 46.76836777 C-69.42484436 42.86952246 -69.42688639 38.97092771 -69.41814804 35.07205963 C-69.41738165 33.64752402 -69.42166744 32.22297451 -69.43160629 30.79847336 C-69.51868466 17.53080408 -67.60290394 6.80707704 -58.10350037 -2.95777893 C-39.96065746 -19.50488422 -18.77907997 -10.48900848 0 0 Z " fill="#FCFCFC" transform="translate(89.06053161621094,34.94606018066406)"/>
<path d="M0 0 C5.13211752 1.56656051 9.85895165 3.6931374 14.6875 6 C15.51620605 6.39372803 16.34491211 6.78745605 17.19873047 7.19311523 C23.89031404 10.402473 30.45054867 13.83142413 36.99487305 17.32910156 C42.26179925 20.12925335 47.5872549 22.7443574 53 25.25 C67.10771342 31.82681937 81.52251089 38.61058217 87.7734375 53.890625 C90.12393749 61.40001456 89.13019415 69.18096452 85.875 76.25 C79.28370393 88.11808865 67.430244 93.43606633 55.71679688 99.28686523 C54.74319214 99.77702621 53.7695874 100.26718719 52.76647949 100.77220154 C49.58598773 102.37185642 46.40258149 103.96559755 43.21875 105.55859375 C40.9957504 106.67330962 38.77281024 107.78814403 36.54992676 108.90309143 C31.91165342 111.22819156 27.27175817 113.55001814 22.63085938 115.86987305 C17.85983691 118.25530242 13.0915768 120.64610253 8.32617188 123.04272461 C2.56055016 125.94213645 -3.20888584 128.83380395 -8.98143005 131.71940804 C-11.18046041 132.82010659 -13.3781879 133.92341194 -15.57460022 135.02932549 C-18.63000065 136.56675513 -21.69023578 138.09409479 -24.75195312 139.61889648 C-25.66412598 140.08060242 -26.57629883 140.54230835 -27.51611328 141.01800537 C-28.34582642 141.42866745 -29.17553955 141.83932953 -30.03039551 142.26243591 C-30.75299812 142.62428199 -31.47560074 142.98612806 -32.2201004 143.35893917 C-32.80746727 143.57048924 -33.39483414 143.78203932 -34 144 C-34.66 143.67 -35.32 143.34 -36 143 C-6.75 102.5 -6.75 102.5 -5.12475586 100.24975586 C-4.04211746 98.7506555 -2.9595978 97.25146938 -1.87719727 95.75219727 C1.38751284 91.23050748 4.65671541 86.71211146 7.92919922 82.19604492 C9.5446877 79.96213103 11.15355349 77.72356445 12.76171875 75.484375 C14.98620111 72.3897974 17.24334584 69.32234263 19.51953125 66.265625 C20.63827726 64.73977131 21.75677579 63.21373613 22.875 61.6875 C23.40552979 60.98810303 23.93605957 60.28870605 24.48266602 59.56811523 C27.40085631 55.70439599 27.40085631 55.70439599 27.8203125 51.01953125 C27.54960937 50.35308594 27.27890625 49.68664062 27 49 C22.62895677 47.90844253 18.39804796 47.90293299 13.92578125 47.97265625 C12.35612191 47.98529138 10.78646034 47.99765314 9.21679688 48.00976562 C6.75440483 48.03467315 4.29212909 48.06277444 1.82983398 48.09594727 C-0.55485806 48.12604325 -2.93939815 48.14388068 -5.32421875 48.16015625 C-6.4335804 48.18034569 -6.4335804 48.18034569 -7.56535339 48.20094299 C-9.37811804 48.20989179 -11.19078198 48.11369223 -13 48 C-13.66 47.34 -14.32 46.68 -15 46 C-14.90075591 37.90168202 -11.45622784 30.4740076 -8.625 23 C-8.12420827 21.6591496 -7.62420234 20.31800544 -7.125 18.9765625 C-5.75969665 15.31403359 -4.38087041 11.65669008 -3 8 C-2.3822943 6.35436108 -1.76498977 4.7085714 -1.1484375 3.0625 C-0.57996094 1.5465625 -0.57996094 1.5465625 0 0 Z " fill="#FAFAFA" transform="translate(147,65)"/>
</svg>
